<svg width="20" height="20" viewBox="0 0 20 20" fill="none" xmlns="http://www.w3.org/2000/svg">
  <path d="M15.8334 6.66016C15.7401 6.2935 15.3734 6.08016 15.0068 6.16016C13.4201 6.5135 11.6534 6.66683 10.0001 6.66683C8.34676 6.66683 6.5801 6.5135 4.99343 6.16016C4.62676 6.08016 4.2601 6.2935 4.16676 6.66016C4.07343 7.0335 4.3001 7.4135 4.66676 7.50016C5.7401 7.74016 6.9001 7.90683 8.0001 8.00016V16.0002C8.0001 16.3668 8.3001 16.6668 8.66676 16.6668C9.03343 16.6668 9.33343 16.3668 9.33343 16.0002V12.6668H10.6668V16.0002C10.6668 16.3668 10.9668 16.6668 11.3334 16.6668C11.7001 16.6668 12.0001 16.3668 12.0001 16.0002V8.00016C13.1001 7.90683 14.2601 7.74016 15.3268 7.50016C15.7001 7.4135 15.9268 7.0335 15.8334 6.66016ZM10.0001 6.00016C10.7334 6.00016 11.3334 5.40016 11.3334 4.66683C11.3334 3.9335 10.7334 3.3335 10.0001 3.3335C9.26676 3.3335 8.66676 3.9335 8.66676 4.66683C8.66676 5.40016 9.26676 6.00016 10.0001 6.00016Z" fill="white"/>
  <circle cx="10" cy="10" r="9" stroke="white" stroke-width="2"/>
</svg>
