<?xml version="1.0" encoding="UTF-8"?>
<svg id="Layer_1" data-name="Layer 1" xmlns="http://www.w3.org/2000/svg" viewBox="0 0 32 32">
  <defs>
    <style>
      .cls-1 {
        fill: #1c1c1c;
      }
    </style>
  </defs>
  <path class="cls-1" d="M28,16c0,.2-.08.4-.22.54-.14.14-.34.22-.54.22h-10.47v10.47c0,.2-.08.4-.22.54-.14.14-.34.22-.54.22s-.4-.08-.54-.22c-.14-.14-.22-.34-.22-.54v-10.47H4.77c-.2,0-.4-.08-.54-.22-.14-.14-.22-.34-.22-.54s.08-.4.22-.54c.14-.14.34-.22.54-.22h10.47V4.77c0-.2.08-.4.22-.54.14-.14.34-.22.54-.22s.4.08.54.22c.14.14.22.34.22.54v10.47h10.47c.2,0,.4.08.54.22.14.14.22.34.22.54Z"/>
</svg>