<?xml version="1.0" encoding="UTF-8"?>
<svg id="Layer_1" data-name="Layer 1" xmlns="http://www.w3.org/2000/svg" viewBox="0 0 32 32">
  <path d="M26.3,6.5H5.7c-.19,0-.36.08-.5.21-.13.14-.21.32-.21.52s.07.38.21.52c.13.14.31.21.5.21h1.17v17.83c0,.45.17.89.48,1.21.31.32.72.5,1.16.5h14.98c.43,0,.85-.18,1.16-.5s.48-.76.48-1.21V7.97h1.17c.19,0,.36-.08.5-.21.13-.14.21-.32.21-.52s-.07-.38-.21-.52c-.13-.14-.31-.21-.5-.21ZM23.5,25.76c0,.06-.02.13-.07.17s-.1.07-.16.07h-14.55c-.06,0-.12-.03-.16-.07-.04-.05-.07-.11-.07-.17V8h15v17.76ZM10,5c0-.2.08-.39.23-.53.15-.14.35-.22.55-.22h10.43c.21,0,.41.08.55.22.15.14.23.33.23.53s-.08.39-.23.53c-.15.14-.35.22-.55.22h-10.43c-.21,0-.41-.08-.55-.22-.15-.14-.23-.33-.23-.53Z"/>
</svg>