<svg width="20" height="20" viewBox="0 0 20 20" fill="none" xmlns="http://www.w3.org/2000/svg">
<g id="FileArrowDown">
<path id="Vector" d="M16.5813 6.54375L12.2063 2.16875C12.1184 2.08082 11.9993 2.03136 11.875 2.03125H4.375C4.08492 2.03125 3.80672 2.14648 3.6016 2.3516C3.39648 2.55672 3.28125 2.83492 3.28125 3.125V16.875C3.28125 17.1651 3.39648 17.4433 3.6016 17.6484C3.80672 17.8535 4.08492 17.9688 4.375 17.9688H15.625C15.9151 17.9688 16.1933 17.8535 16.3984 17.6484C16.6035 17.4433 16.7188 17.1651 16.7188 16.875V6.875C16.7186 6.75072 16.6692 6.63157 16.5813 6.54375ZM12.3438 3.63125L15.1188 6.40625H12.3438V3.63125ZM15.625 17.0312H4.375C4.33356 17.0312 4.29382 17.0148 4.26451 16.9855C4.23521 16.9562 4.21875 16.9164 4.21875 16.875V3.125C4.21875 3.08356 4.23521 3.04382 4.26451 3.01451C4.29382 2.98521 4.33356 2.96875 4.375 2.96875H11.4062V6.875C11.4062 6.99932 11.4556 7.11855 11.5435 7.20646C11.6315 7.29436 11.7507 7.34375 11.875 7.34375H15.7812V16.875C15.7812 16.9164 15.7648 16.9562 15.7355 16.9855C15.7062 17.0148 15.6664 17.0312 15.625 17.0312ZM12.2063 12.1687C12.294 12.2566 12.3433 12.3758 12.3433 12.5C12.3433 12.6242 12.294 12.7434 12.2063 12.8313L10.3313 14.7063C10.2434 14.794 10.1242 14.8433 10 14.8433C9.87578 14.8433 9.75664 14.794 9.66875 14.7063L7.79375 12.8313C7.71095 12.7424 7.66587 12.6249 7.66802 12.5034C7.67016 12.382 7.71935 12.2661 7.80524 12.1802C7.89112 12.0944 8.00699 12.0452 8.12842 12.043C8.24986 12.0409 8.36739 12.0859 8.45625 12.1687L9.53125 13.243V9.375C9.53125 9.25068 9.58064 9.13145 9.66854 9.04354C9.75645 8.95564 9.87568 8.90625 10 8.90625C10.1243 8.90625 10.2435 8.95564 10.3315 9.04354C10.4194 9.13145 10.4688 9.25068 10.4688 9.375V13.243L11.5437 12.1687C11.6316 12.081 11.7508 12.0317 11.875 12.0317C11.9992 12.0317 12.1184 12.081 12.2063 12.1687Z" fill="white"/>
</g>
</svg>
