<svg width="20" height="20" viewBox="0 0 20 20" fill="none" xmlns="http://www.w3.org/2000/svg">
<g id="FlagPennant">
<path id="Vector" d="M18.9062 7.68208L4.53125 2.68208C4.46047 2.65706 4.38471 2.6494 4.31035 2.65975C4.23599 2.67011 4.1652 2.69817 4.10395 2.74159C4.0427 2.785 3.99277 2.84249 3.95836 2.90922C3.92396 2.97595 3.90609 3.04997 3.90625 3.12505V16.8751C3.90625 16.9994 3.95564 17.1186 4.04354 17.2065C4.13145 17.2944 4.25068 17.3438 4.375 17.3438C4.49932 17.3438 4.61855 17.2944 4.70646 17.2065C4.79437 17.1186 4.84375 16.9994 4.84375 16.8751V13.4586L18.9062 8.56802C18.9984 8.53614 19.0782 8.47635 19.1348 8.39695C19.1913 8.31756 19.2217 8.22252 19.2217 8.12505C19.2217 8.02759 19.1913 7.93254 19.1348 7.85315C19.0782 7.77376 18.9984 7.71396 18.9062 7.68208ZM4.84375 12.4657V3.78443L17.3234 8.12505L4.84375 12.4657Z" fill="white"/>
</g>
</svg>
