<svg width="20" height="20" viewBox="0 0 20 20" fill="none" xmlns="http://www.w3.org/2000/svg">
<g id="FlagPennant">
<path id="Vector" d="M19.375 8.12488C19.3751 8.2547 19.3347 8.38133 19.2595 8.48717C19.1844 8.59302 19.0781 8.67282 18.9555 8.7155L5 13.5694V16.8749C5 17.0406 4.93415 17.1996 4.81694 17.3168C4.69973 17.434 4.54076 17.4999 4.375 17.4999C4.20924 17.4999 4.05027 17.434 3.93306 17.3168C3.81585 17.1996 3.75 17.0406 3.75 16.8749V3.12488C3.74994 3.02511 3.77377 2.92679 3.81948 2.83812C3.86519 2.74944 3.93147 2.673 4.01277 2.61518C4.09407 2.55737 4.18803 2.51985 4.28679 2.50577C4.38555 2.49169 4.48625 2.50145 4.58047 2.53425L18.9555 7.53425C19.0781 7.57693 19.1844 7.65674 19.2595 7.76258C19.3347 7.86842 19.3751 7.99505 19.375 8.12488Z" fill="#B60007"/>
</g>
</svg>
