<svg width="24" height="24" viewBox="0 0 24 24" fill="none" xmlns="http://www.w3.org/2000/svg">
<path d="M22.6875 9.21821L5.4375 3.21821C5.35256 3.18817 5.26165 3.17899 5.17242 3.19141C5.08318 3.20384 4.99824 3.23752 4.92474 3.28961C4.85123 3.34171 4.79132 3.4107 4.75003 3.49077C4.70875 3.57085 4.6873 3.65967 4.6875 3.74977V20.2498C4.6875 20.399 4.74676 20.542 4.85225 20.6475C4.95774 20.753 5.10082 20.8123 5.25 20.8123C5.39919 20.8123 5.54226 20.753 5.64775 20.6475C5.75324 20.542 5.8125 20.399 5.8125 20.2498V16.1501L22.6875 10.2813C22.798 10.2431 22.8939 10.1713 22.9617 10.076C23.0296 9.98078 23.066 9.86673 23.066 9.74977C23.066 9.63281 23.0296 9.51876 22.9617 9.42349C22.8939 9.32821 22.798 9.25646 22.6875 9.21821ZM5.8125 14.9585V4.54102L20.7881 9.74977L5.8125 14.9585Z" fill="#353535"/>
</svg>
