<svg width="32" height="32" viewBox="0 0 32 32" fill="none"
    xmlns="http://www.w3.org/2000/svg">
    <g id="House">
        <path id="Vector" d="M27.1838 13.155L17.1838 3.71748L17.1725 3.70748C16.8512 3.41322 16.4313 3.25 15.9956 3.25C15.56 3.25 15.1401 3.41322 14.8188 3.70748L14.8075 3.71748L4.80752 13.155C4.63064 13.3197 4.48979 13.5192 4.39384 13.741C4.29789 13.9628 4.24892 14.2021 4.25002 14.4437L4.25001 26C4.25001 26.4641 4.43439 26.9092 4.76258 27.2374C5.09077 27.5656 5.53588 27.75 6.00001 27.75L12 27.75C12.4641 27.75 12.9093 27.5656 13.2375 27.2374C13.5656 26.9092 13.75 26.4641 13.75 26L13.75 20C13.75 19.9337 13.7764 19.8701 13.8232 19.8232C13.8701 19.7763 13.9337 19.75 14 19.75L18 19.75C18.0663 19.75 18.1299 19.7763 18.1768 19.8232C18.2237 19.8701 18.25 19.9337 18.25 20L18.25 26C18.25 26.4641 18.4344 26.9092 18.7626 27.2374C19.0908 27.5656 19.5359 27.75 20 27.75L26 27.75C26.4641 27.75 26.9093 27.5656 27.2374 27.2374C27.5656 26.9092 27.75 26.4641 27.75 26L27.75 14.4437C27.75 14.2014 27.6997 13.9618 27.6022 13.7399C27.5047 13.5181 27.3622 13.3189 27.1838 13.155ZM26.25 26C26.25 26.0663 26.2237 26.1299 26.1768 26.1768C26.1299 26.2236 26.0663 26.25 26 26.25L20 26.25C19.9337 26.25 19.8701 26.2236 19.8232 26.1768C19.7764 26.1299 19.75 26.0663 19.75 26L19.75 20C19.75 19.5359 19.5656 19.0907 19.2375 18.7625C18.9093 18.4344 18.4641 18.25 18 18.25L14 18.25C13.5359 18.25 13.0908 18.4344 12.7626 18.7625C12.4344 19.0907 12.25 19.5359 12.25 20L12.25 26C12.25 26.0663 12.2237 26.1299 12.1768 26.1768C12.1299 26.2236 12.0663 26.25 12 26.25L6.00001 26.25C5.93371 26.25 5.87012 26.2236 5.82324 26.1768C5.77635 26.1299 5.75001 26.0663 5.75001 26L5.75002 14.4437C5.74994 14.4089 5.75713 14.3745 5.77112 14.3427C5.78511 14.3108 5.8056 14.2822 5.83127 14.2587L5.84252 14.2487L15.835 4.81373C15.8806 4.77399 15.939 4.7521 15.9994 4.7521C16.0598 4.7521 16.1182 4.77399 16.1638 4.81373L26.1575 14.25L26.1675 14.26C26.1934 14.2834 26.2141 14.3119 26.2283 14.3438C26.2425 14.3756 26.2499 14.4101 26.25 14.445L26.25 26Z" fill="black"/>
    </g>
</svg>
