<?xml version="1.0" encoding="UTF-8"?>
<svg id="Layer_1" data-name="Layer 1" xmlns="http://www.w3.org/2000/svg" viewBox="0 0 32 32">
  <path d="M12.46,6.75h15.07c.26,0,.46-.33.46-.75s-.21-.75-.46-.75h-15.07c-.26,0-.46.33-.46.75s.21.75.46.75ZM27.51,15.25h-15.05c-.26,0-.46.33-.46.75s.21.75.46.75h15.07c.26,0,.46-.33.46-.75s-.23-.75-.49-.75ZM27.51,25.25h-15.05c-.26,0-.46.33-.46.75s.21.75.46.75h15.07c.26,0,.46-.33.46-.75s-.23-.75-.49-.75ZM9.83,12.5h-5.66c-.37,0-.67.3-.67.67v5.66c0,.37.3.67.67.67h5.66c.37,0,.67-.3.67-.67v-5.66c-.04-.37-.34-.67-.67-.67ZM8.97,18h-3.97v-4h4v4h-.03ZM3.72,10h6.55c.25,0,.5-.14.63-.42.13-.28.13-.56,0-.84l-3.28-6.32c-.13-.23-.38-.42-.63-.42s-.5.14-.63.42l-3.28,6.36c-.13.23-.13.56,0,.84.13.28.38.37.63.37ZM7.02,4l2.23,4.5h-4.5l2.27-4.5ZM7,22c-2.2,0-4,1.8-4,4s1.8,4,4,4,4-1.8,4-4-1.8-4-4-4ZM7,28.5c-1.38,0-2.5-1.12-2.5-2.5s1.12-2.5,2.5-2.5,2.5,1.12,2.5,2.5-1.12,2.5-2.5,2.5Z"/>
</svg>