<svg width="32" height="32" viewBox="0 0 32 32" fill="none"
    xmlns="http://www.w3.org/2000/svg">
    <g id="MapTrifold">
        <path id="Vector" d="M28.4612 6.40859C28.3714 6.33844 28.2667 6.2897 28.1551 6.26609C28.0436 6.24248 27.9281 6.24462 27.8175 6.27234L20.0875 8.20483L12.3375 4.32983C12.1772 4.2499 11.9937 4.22995 11.82 4.27358L3.82 6.27358C3.6576 6.31373 3.51329 6.40702 3.41001 6.53861C3.30673 6.6702 3.25041 6.83255 3.25 6.99983L3.25 24.9998C3.24999 25.1139 3.27599 25.2264 3.32601 25.3289C3.37603 25.4313 3.44876 25.5211 3.53866 25.5912C3.62857 25.6613 3.73329 25.7101 3.84485 25.7337C3.95642 25.7572 4.07189 25.7551 4.1825 25.7273L11.9125 23.7948L19.6625 27.6698C19.8227 27.7498 20.0063 27.7697 20.18 27.7261L28.18 25.7261C28.3424 25.6859 28.4867 25.5927 28.59 25.4611C28.6933 25.3295 28.7496 25.1671 28.75 24.9998L28.75 6.99984C28.75 6.88582 28.724 6.77331 28.6739 6.67085C28.6239 6.5684 28.5512 6.47871 28.4612 6.40859ZM12.75 6.21358L19.25 9.46358L19.25 25.7861L12.75 22.5361L12.75 6.21358ZM4.75 7.58858L11.25 5.96358L11.25 22.4148L4.75 24.0398L4.75 7.58858ZM27.25 24.4148L20.75 26.0398L20.75 9.58483L27.25 7.95984L27.25 24.4148Z" fill="black"/>
    </g>
</svg>
