<svg width="34" height="27" viewBox="0 0 34 27" fill="none" xmlns="http://www.w3.org/2000/svg">
<g filter="url(#filter0_d_1009_2926)">
<path d="M12.5328 3.89773H28.9935C29.2749 3.89773 29.5 3.67263 29.5 3.39125C29.5 3.10987 29.2749 2.88477 28.9935 2.88477H12.5328C12.2515 2.88477 12.0264 3.10987 12.0264 3.39125C12.0264 3.67263 12.2515 3.89773 12.5328 3.89773Z" fill="white"/>
<path d="M28.9654 9.55371H12.5328C12.2515 9.55371 12.0264 9.77881 12.0264 10.0602C12.0264 10.3416 12.2515 10.5667 12.5328 10.5667H28.9935C29.2749 10.5667 29.5 10.3416 29.5 10.0602C29.5 9.77881 29.2468 9.55371 28.9654 9.55371Z" fill="white"/>
<path d="M28.9654 16.1943H12.5328C12.2515 16.1943 12.0264 16.4194 12.0264 16.7008C12.0264 16.9822 12.2515 17.2073 12.5328 17.2073H28.9935C29.2749 17.2073 29.5 16.9822 29.5 16.7008C29.5 16.4194 29.2468 16.1943 28.9654 16.1943Z" fill="white"/>
<path d="M8.87427 7.41504H4.5973C4.31592 7.41504 4.09082 7.64014 4.09082 7.92152V12.1985C4.09082 12.4799 4.31592 12.705 4.5973 12.705H8.87427C9.15565 12.705 9.38075 12.4799 9.38075 12.1985V7.92152C9.35261 7.64014 9.12751 7.41504 8.87427 7.41504ZM8.36779 11.692H5.10379V8.39987H8.39592V11.692H8.36779Z" fill="white"/>
<path d="M4.48538 5.81159H8.8749C9.04372 5.81159 9.21255 5.72717 9.29697 5.55834C9.38138 5.38952 9.38138 5.22069 9.29697 5.05186L7.10221 1.25324C7.01779 1.11255 6.84897 1 6.68014 1C6.51131 1 6.34248 1.08441 6.25807 1.25324L4.06331 5.08C3.9789 5.22069 3.9789 5.41766 4.06331 5.58648C4.14772 5.75531 4.31655 5.81159 4.48538 5.81159ZM6.68014 2.51945L8.00262 4.82676H5.32952L6.68014 2.51945Z" fill="white"/>
<path d="M6.82063 13.8594C5.27304 13.8594 4.00684 15.1256 4.00684 16.6732C4.00684 18.2208 5.27304 19.487 6.82063 19.487C8.36822 19.487 9.63442 18.2208 9.63442 16.6732C9.63442 15.1256 8.36822 13.8594 6.82063 13.8594ZM6.82063 18.5021C5.80766 18.5021 4.99166 17.6861 4.99166 16.6732C4.99166 15.6602 5.80766 14.8442 6.82063 14.8442C7.83359 14.8442 8.64959 15.6602 8.64959 16.6732C8.64959 17.6861 7.83359 18.5021 6.82063 18.5021Z" fill="white"/>
</g>
<defs>
<filter id="filter0_d_1009_2926" x="0" y="0" width="33.5" height="26.4873" filterUnits="userSpaceOnUse" color-interpolation-filters="sRGB">
<feFlood flood-opacity="0" result="BackgroundImageFix"/>
<feColorMatrix in="SourceAlpha" type="matrix" values="0 0 0 0 0 0 0 0 0 0 0 0 0 0 0 0 0 0 127 0" result="hardAlpha"/>
<feOffset dy="3"/>
<feGaussianBlur stdDeviation="2"/>
<feComposite in2="hardAlpha" operator="out"/>
<feColorMatrix type="matrix" values="0 0 0 0 0.4 0 0 0 0 0.4 0 0 0 0 0.4 0 0 0 0.25 0"/>
<feBlend mode="normal" in2="BackgroundImageFix" result="effect1_dropShadow_1009_2926"/>
<feBlend mode="normal" in="SourceGraphic" in2="effect1_dropShadow_1009_2926" result="shape"/>
</filter>
</defs>
</svg>
