<svg width="46" height="46" viewBox="0 0 46 46" fill="none" xmlns="http://www.w3.org/2000/svg">
<path d="M33.9896 29.0579L24.2086 7.73862L24.1971 7.72713C24.0536 7.43267 23.8303 7.18441 23.5526 7.01059C23.2749 6.83677 22.9541 6.74438 22.6265 6.74392C22.2989 6.74346 21.9778 6.83495 21.6996 7.00799C21.4215 7.18102 21.1975 7.42866 21.0531 7.72271C21.0531 7.72271 21.0452 7.73067 21.0416 7.7342L11.265 29.0579C11.1044 29.3832 11.0506 29.7508 11.1114 30.1085C11.1722 30.4661 11.3444 30.7954 11.6035 31.0493L11.6265 31.0723C11.8899 31.3322 12.2299 31.5005 12.5963 31.5524C12.9626 31.6043 13.336 31.537 13.6612 31.3604L22.5106 26.6758C22.5466 26.6568 22.5867 26.6469 22.6273 26.6469C22.668 26.6469 22.708 26.6568 22.744 26.6758L31.5934 31.3604C31.9188 31.5324 32.2902 31.5973 32.6546 31.5461C33.0191 31.4948 33.3581 31.33 33.6235 31.075C33.8889 30.82 34.0671 30.4878 34.1329 30.1257C34.1986 29.7635 34.1485 29.3899 33.9896 29.0579ZM32.2952 30.0346L23.4431 25.3473C23.191 25.2139 22.91 25.1442 22.6247 25.1442C22.3394 25.1442 22.0584 25.2139 21.8062 25.3473L12.9567 30.0319C12.9109 30.0595 12.8569 30.0705 12.804 30.0629C12.751 30.0553 12.7022 30.0297 12.6659 29.9904C12.6248 29.9559 12.5972 29.908 12.5879 29.8551C12.5787 29.8022 12.5885 29.7477 12.6156 29.7014C12.6194 29.6982 12.623 29.6946 12.6262 29.6908L22.4055 8.37325C22.4266 8.33263 22.4584 8.29858 22.4975 8.27482C22.5366 8.25106 22.5815 8.23849 22.6273 8.23849C22.6731 8.23849 22.718 8.25106 22.7571 8.27482C22.7962 8.29858 22.8281 8.33263 22.8492 8.37325L32.6293 29.6899L32.6399 29.7005C32.663 29.7478 32.6704 29.8013 32.6613 29.8531C32.6522 29.905 32.6269 29.9527 32.5891 29.9893C32.5512 30.026 32.5028 30.0497 32.4507 30.0572C32.3985 30.0647 32.3454 30.0556 32.2988 30.031L32.2952 30.0346Z" fill="white"/>
</svg>
