<svg width="33" height="33" viewBox="0 0 33 33" fill="none" xmlns="http://www.w3.org/2000/svg">
<g id="NavigationArrowC477">
<path id="Vector" d="M28.018 26.6663L18.2369 5.34702L18.2254 5.33553C18.0819 5.04107 17.8586 4.79281 17.5809 4.61899C17.3033 4.44517 16.9824 4.35278 16.6548 4.35232C16.3272 4.35186 16.0061 4.44335 15.7279 4.61639C15.4498 4.78942 15.2258 5.03706 15.0814 5.33111C15.0814 5.33111 15.0735 5.33907 15.0699 5.3426L5.29331 26.6663C5.1327 26.9915 5.07895 27.3592 5.13975 27.7169C5.20054 28.0745 5.37277 28.4038 5.63184 28.6577L5.65482 28.6807C5.91821 28.9406 6.2582 29.1089 6.62458 29.1608C6.99097 29.2127 7.36432 29.1454 7.68952 28.9688L16.539 24.2842C16.5749 24.2652 16.615 24.2553 16.6556 24.2553C16.6963 24.2553 16.7363 24.2652 16.7723 24.2842L25.6217 28.9688C25.9472 29.1408 26.3185 29.2057 26.683 29.1545C27.0474 29.1032 27.3864 28.9384 27.6518 28.6834C27.9172 28.4284 28.0954 28.0962 28.1612 27.7341C28.2269 27.3719 28.1768 26.9983 28.018 26.6663ZM26.3236 27.643L17.4715 22.9557C17.2193 22.8223 16.9383 22.7526 16.653 22.7526C16.3677 22.7526 16.0867 22.8223 15.8345 22.9557L6.98507 27.6403C6.93922 27.6679 6.88525 27.6789 6.83228 27.6713C6.7793 27.6637 6.73056 27.6381 6.69427 27.5988C6.65311 27.5643 6.62548 27.5164 6.61626 27.4635C6.60704 27.4106 6.61683 27.3561 6.64389 27.3098C6.64776 27.3066 6.65132 27.303 6.65449 27.2992L16.4338 5.98165C16.4549 5.94103 16.4867 5.90698 16.5258 5.88322C16.565 5.85946 16.6099 5.84689 16.6556 5.84689C16.7014 5.84689 16.7463 5.85946 16.7854 5.88322C16.8245 5.90698 16.8564 5.94103 16.8775 5.98165L26.6577 27.2983L26.6683 27.3089C26.6913 27.3562 26.6988 27.4097 26.6896 27.4615C26.6805 27.5134 26.6552 27.5611 26.6174 27.5977C26.5796 27.6344 26.5311 27.6581 26.479 27.6656C26.4269 27.6731 26.3737 27.664 26.3271 27.6394L26.3236 27.643Z" fill="white"/>
</g>
</svg>
