<svg width="24" height="24" viewBox="0 0 24 24" fill="none" xmlns="http://www.w3.org/2000/svg">
<path d="M15.5625 12C15.5625 12.1492 15.5032 12.2923 15.3977 12.3977C15.2923 12.5032 15.1492 12.5625 15 12.5625H9C8.85082 12.5625 8.70774 12.5032 8.60225 12.3977C8.49676 12.2923 8.4375 12.1492 8.4375 12C8.4375 11.8508 8.49676 11.7077 8.60225 11.6023C8.70774 11.4968 8.85082 11.4375 9 11.4375H15C15.1492 11.4375 15.2923 11.4968 15.3977 11.6023C15.5032 11.7077 15.5625 11.8508 15.5625 12ZM15 14.4375H9C8.85082 14.4375 8.70774 14.4968 8.60225 14.6023C8.49676 14.7077 8.4375 14.8508 8.4375 15C8.4375 15.1492 8.49676 15.2923 8.60225 15.3977C8.70774 15.5032 8.85082 15.5625 9 15.5625H15C15.1492 15.5625 15.2923 15.5032 15.3977 15.3977C15.5032 15.2923 15.5625 15.1492 15.5625 15C15.5625 14.8508 15.5032 14.7077 15.3977 14.6023C15.2923 14.4968 15.1492 14.4375 15 14.4375ZM20.0625 4.5V18.75C20.0625 19.4959 19.7662 20.2113 19.2387 20.7387C18.7113 21.2662 17.9959 21.5625 17.25 21.5625H6.75C6.00408 21.5625 5.28871 21.2662 4.76126 20.7387C4.23382 20.2113 3.9375 19.4959 3.9375 18.75V4.5C3.9375 4.1519 4.07578 3.81806 4.32192 3.57192C4.56806 3.32578 4.9019 3.1875 5.25 3.1875H6.9375V2.25C6.9375 2.10082 6.99676 1.95774 7.10225 1.85225C7.20774 1.74676 7.35082 1.6875 7.5 1.6875C7.64918 1.6875 7.79226 1.74676 7.89775 1.85225C8.00324 1.95774 8.0625 2.10082 8.0625 2.25V3.1875H11.4375V2.25C11.4375 2.10082 11.4968 1.95774 11.6023 1.85225C11.7077 1.74676 11.8508 1.6875 12 1.6875C12.1492 1.6875 12.2923 1.74676 12.3977 1.85225C12.5032 1.95774 12.5625 2.10082 12.5625 2.25V3.1875H15.9375V2.25C15.9375 2.10082 15.9968 1.95774 16.1023 1.85225C16.2077 1.74676 16.3508 1.6875 16.5 1.6875C16.6492 1.6875 16.7923 1.74676 16.8977 1.85225C17.0032 1.95774 17.0625 2.10082 17.0625 2.25V3.1875H18.75C19.0981 3.1875 19.4319 3.32578 19.6781 3.57192C19.9242 3.81806 20.0625 4.1519 20.0625 4.5ZM18.9375 4.5C18.9375 4.45027 18.9177 4.40258 18.8826 4.36742C18.8474 4.33225 18.7997 4.3125 18.75 4.3125H17.0625V5.25C17.0625 5.39918 17.0032 5.54226 16.8977 5.64775C16.7923 5.75324 16.6492 5.8125 16.5 5.8125C16.3508 5.8125 16.2077 5.75324 16.1023 5.64775C15.9968 5.54226 15.9375 5.39918 15.9375 5.25V4.3125H12.5625V5.25C12.5625 5.39918 12.5032 5.54226 12.3977 5.64775C12.2923 5.75324 12.1492 5.8125 12 5.8125C11.8508 5.8125 11.7077 5.75324 11.6023 5.64775C11.4968 5.54226 11.4375 5.39918 11.4375 5.25V4.3125H8.0625V5.25C8.0625 5.39918 8.00324 5.54226 7.89775 5.64775C7.79226 5.75324 7.64918 5.8125 7.5 5.8125C7.35082 5.8125 7.20774 5.75324 7.10225 5.64775C6.99676 5.54226 6.9375 5.39918 6.9375 5.25V4.3125H5.25C5.20027 4.3125 5.15258 4.33225 5.11742 4.36742C5.08225 4.40258 5.0625 4.45027 5.0625 4.5V18.75C5.0625 19.1976 5.24029 19.6268 5.55676 19.9432C5.87323 20.2597 6.30245 20.4375 6.75 20.4375H17.25C17.6976 20.4375 18.1268 20.2597 18.4432 19.9432C18.7597 19.6268 18.9375 19.1976 18.9375 18.75V4.5Z" fill="#353535"/>
</svg>
