<svg width="32" height="32" viewBox="0 0 32 32" fill="none"
    xmlns="http://www.w3.org/2000/svg">
    <path d="M28.6542 6.34754C28.3059 5.99906 27.8924 5.72263 27.4373 5.53402C26.9821 5.34541 26.4943 5.24834 26.0017 5.24834C25.509 5.24834 25.0212 5.34541 24.566 5.53402C24.1109 5.72263 23.6974 5.99906 23.3492 6.34754C23.0677 6.6288 22.833 6.95333 22.6542 7.30879L18.7404 6.24129C18.7896 5.48072 18.6059 4.72322 18.2137 4.0697C17.8215 3.41618 17.2395 2.89767 16.5453 2.58325C15.851 2.26883 15.0774 2.17342 14.3275 2.30974C13.5776 2.44606 12.8871 2.80763 12.3479 3.34629C11.7619 3.93469 11.3871 4.70047 11.282 5.5242C11.1768 6.34794 11.3473 7.18331 11.7667 7.90004L7.22916 11.9838C6.50608 11.4511 5.61617 11.195 4.72056 11.2617C3.82495 11.3284 2.98282 11.7136 2.34666 12.3475C1.64219 13.0371 1.23755 13.9762 1.2203 14.9618C1.20305 15.9474 1.57457 16.9002 2.25448 17.614C2.93438 18.3277 3.86798 18.745 4.85326 18.7757C5.83854 18.8063 6.79625 18.4477 7.51916 17.7775L16.5942 24.4338C16.3079 25.0563 16.1977 25.7453 16.2755 26.4261C16.3533 27.1068 16.616 27.7533 17.0353 28.2952C17.4546 28.8371 18.0144 29.2538 18.6538 29.5C19.2932 29.7462 19.9878 29.8125 20.6623 29.6917C21.3367 29.5709 21.9652 29.2677 22.4794 28.8149C22.9936 28.3621 23.374 27.777 23.5792 27.1233C23.7843 26.4696 23.8065 25.7721 23.6432 25.1067C23.4799 24.4413 23.1374 23.8333 22.6529 23.3488C22.4366 23.1322 22.1944 22.9433 21.9317 22.7863L25.4867 12.7125C25.6569 12.7362 25.8285 12.7487 26.0004 12.75C26.7418 12.7499 27.4665 12.53 28.083 12.118C28.6995 11.7061 29.18 11.1207 29.4639 10.4358C29.7477 9.75089 29.8222 8.9972 29.6779 8.26997C29.5335 7.54274 29.1768 6.87462 28.6529 6.35004L28.6542 6.34754ZM13.4042 4.40754C13.7189 4.09294 14.1198 3.87872 14.5562 3.79197C14.9926 3.70521 15.445 3.74981 15.8561 3.92013C16.2672 4.09045 16.6185 4.37884 16.8657 4.74883C17.1129 5.11883 17.2449 5.55381 17.2449 5.99879C17.2449 6.44376 17.1129 6.87875 16.8657 7.24874C16.6185 7.61874 16.2672 7.90713 15.8561 8.07745C15.445 8.24777 14.9926 8.29237 14.5562 8.20561C14.1198 8.11885 13.7189 7.90463 13.4042 7.59004C13.1955 7.38077 13.0301 7.13244 12.9174 6.85923C12.8047 6.58602 12.7469 6.29329 12.7474 5.99775C12.7479 5.70222 12.8065 5.40967 12.9201 5.13681C13.0336 4.86396 13.1998 4.61615 13.4092 4.40754H13.4042ZM3.40416 16.5913C3.08956 16.2766 2.87534 15.8757 2.78859 15.4392C2.70183 15.0028 2.74643 14.5504 2.91675 14.1393C3.08707 13.7283 3.37546 13.3769 3.74545 13.1297C4.11544 12.8825 4.55043 12.7506 4.99541 12.7506C5.44038 12.7506 5.87537 12.8825 6.24536 13.1297C6.61536 13.3769 6.90375 13.7283 7.07407 14.1393C7.24438 14.5504 7.28898 15.0028 7.20223 15.4392C7.11547 15.8757 6.90125 16.2766 6.58666 16.5913C6.16483 17.0123 5.59323 17.2487 4.99728 17.2487C4.40134 17.2487 3.82973 17.0123 3.40791 16.5913H3.40416ZM21.5879 27.5913C21.2732 27.9059 20.8723 28.1201 20.4359 28.2069C19.9994 28.2936 19.5471 28.249 19.136 28.0787C18.7249 27.9084 18.3735 27.62 18.1263 27.25C17.8791 26.88 17.7472 26.445 17.7472 26C17.7472 25.5551 17.8791 25.1201 18.1263 24.7501C18.3735 24.3801 18.7249 24.0917 19.136 23.9214C19.5471 23.7511 19.9994 23.7065 20.4359 23.7932C20.8723 23.88 21.2732 24.0942 21.5879 24.4088C21.7973 24.6175 21.9636 24.8655 22.0772 25.1385C22.1907 25.4115 22.2493 25.7042 22.2497 25.9999C22.25 26.2956 22.1921 26.5884 22.0792 26.8617C21.9663 27.135 21.8006 27.3833 21.5917 27.5925L21.5879 27.5913ZM20.5117 22.2875C19.9684 22.212 19.4151 22.2566 18.891 22.4182C18.3668 22.5797 17.8844 22.8543 17.4779 23.2225L8.40541 16.5675C8.65703 16.0179 8.77272 15.4158 8.7427 14.8121C8.71267 14.2084 8.53782 13.6207 8.23291 13.0988L12.7704 9.01504C13.2094 9.33963 13.714 9.56444 14.2489 9.67377C14.7838 9.7831 15.3362 9.7743 15.8673 9.648C16.3985 9.5217 16.8957 9.28093 17.3241 8.94253C17.7526 8.60412 18.102 8.17624 18.3479 7.68879L22.2617 8.75629C22.2267 9.28842 22.3056 9.82189 22.4931 10.3211C22.6806 10.8203 22.9725 11.2738 23.3492 11.6513C23.5664 11.8676 23.809 12.0569 24.0717 12.215L20.5117 22.2875ZM27.5892 10.5888C27.2745 10.9034 26.8735 11.1176 26.4371 11.2044C26.0007 11.2911 25.5483 11.2465 25.1372 11.0762C24.7261 10.9059 24.3748 10.6175 24.1276 10.2475C23.8804 9.8775 23.7484 9.44251 23.7484 8.99754C23.7484 8.55256 23.8804 8.11758 24.1276 7.74758C24.3748 7.37759 24.7261 7.0892 25.1372 6.91888C25.5483 6.74856 26.0007 6.70396 26.4371 6.79072C26.8735 6.87747 27.2745 7.09169 27.5892 7.40629C27.7986 7.61501 27.9648 7.86296 28.0784 8.13597C28.192 8.40898 28.2506 8.7017 28.2509 8.99739C28.2513 9.29307 28.1933 9.58592 28.0804 9.8592C27.9675 10.1325 27.8019 10.3808 27.5929 10.59L27.5892 10.5888Z" fill="white"/>
</svg>
