<svg width="18" height="18" viewBox="0 0 18 18" fill="none" xmlns="http://www.w3.org/2000/svg">
<g id="Warning">
<path id="Vector" d="M16.529 13.2952L10.3795 2.61682C10.2383 2.37666 10.0367 2.17756 9.79491 2.03923C9.55307 1.90089 9.27929 1.82812 9.00068 1.82812C8.72207 1.82812 8.44829 1.90089 8.20645 2.03923C7.96461 2.17756 7.76309 2.37666 7.62185 2.61682L1.47232 13.2952C1.33696 13.5269 1.26562 13.7904 1.26562 14.0588C1.26562 14.3271 1.33696 14.5907 1.47232 14.8224C1.61167 15.0642 1.81292 15.2646 2.05538 15.4029C2.29784 15.5411 2.57275 15.6123 2.85185 15.6092H15.1495C15.4284 15.6121 15.703 15.5408 15.9452 15.4025C16.1874 15.2642 16.3884 15.064 16.5276 14.8224C16.6632 14.5908 16.7348 14.3273 16.735 14.059C16.7353 13.7906 16.6642 13.527 16.529 13.2952ZM15.7971 14.3998C15.7314 14.5128 15.6367 14.6062 15.5229 14.6705C15.4091 14.7347 15.2802 14.7675 15.1495 14.7654H2.85185C2.72116 14.7675 2.59227 14.7347 2.47844 14.6705C2.36462 14.6062 2.26998 14.5128 2.20427 14.3998C2.1428 14.2964 2.11036 14.1783 2.11036 14.0581C2.11036 13.9378 2.1428 13.8197 2.20427 13.7164L8.3531 3.03799C8.42032 2.92632 8.51528 2.83394 8.62875 2.7698C8.74221 2.70566 8.87034 2.67196 9.00068 2.67196C9.13102 2.67196 9.25914 2.70566 9.37261 2.7698C9.48608 2.83394 9.58103 2.92632 9.64826 3.03799L15.7978 13.7164C15.8591 13.8198 15.8915 13.9379 15.8913 14.0582C15.8912 14.1784 15.8587 14.2965 15.7971 14.3998ZM8.5788 10.1248V7.31229C8.5788 7.2004 8.62325 7.09309 8.70237 7.01398C8.78148 6.93486 8.88879 6.89041 9.00068 6.89041C9.11257 6.89041 9.21987 6.93486 9.29899 7.01398C9.37811 7.09309 9.42255 7.2004 9.42255 7.31229V10.1248C9.42255 10.2367 9.37811 10.344 9.29899 10.4231C9.21987 10.5022 9.11257 10.5467 9.00068 10.5467C8.88879 10.5467 8.78148 10.5022 8.70237 10.4231C8.62325 10.344 8.5788 10.2367 8.5788 10.1248ZM9.7038 12.656C9.7038 12.7951 9.66257 12.931 9.58531 13.0467C9.50805 13.1623 9.39823 13.2524 9.26975 13.3056C9.14127 13.3589 8.9999 13.3728 8.8635 13.3457C8.72711 13.3185 8.60183 13.2516 8.50349 13.1532C8.40516 13.0549 8.33819 12.9296 8.31106 12.7932C8.28393 12.6568 8.29786 12.5154 8.35108 12.387C8.40429 12.2585 8.49441 12.1487 8.61004 12.0714C8.72567 11.9942 8.86161 11.9529 9.00068 11.9529C9.18716 11.9529 9.366 12.027 9.49786 12.1589C9.62972 12.2907 9.7038 12.4696 9.7038 12.656Z" fill="#B60007"/>
</g>
</svg>
