<svg width="30" height="30" viewBox="0 0 30 30" fill="none" xmlns="http://www.w3.org/2000/svg">
<path id="Union" fill-rule="evenodd" clip-rule="evenodd" d="M0 13.1983V28.9996C0 29.5519 0.447716 29.9996 1 29.9996H29C29.5523 29.9996 30 29.5519 30 28.9996V13.1983C30 12.6113 29.7421 12.0539 29.2948 11.6739L15.9711 0.356754C15.4111 -0.118919 14.5889 -0.118918 14.0289 0.356755L0.705232 11.6739C0.257857 12.0539 0 12.6113 0 13.1983ZM15.0012 17.3047C21.1136 17.3047 26.1474 22.8588 26.8038 29.9995H3.19873C3.85512 22.8588 8.88888 17.3047 15.0012 17.3047ZM15.2 18.8874L10.525 23.1078C10.2688 23.339 10.3184 23.7542 10.6219 23.9185L13.5431 25.5008C13.7539 25.615 13.854 25.8627 13.7816 26.0913L12.8997 28.8777C12.7459 29.3638 13.333 29.7413 13.7115 29.3997L18.7564 24.8454C19.0366 24.5924 18.9462 24.1321 18.5912 24.0039L15.8574 23.0167C15.6318 22.9353 15.4958 22.7052 15.5333 22.4683L16.0289 19.3367C16.1026 18.871 15.5499 18.5715 15.2 18.8874Z" fill="#51406C"/>
</svg>
