<?xml version="1.0" encoding="UTF-8"?>
<svg id="Layer_1" data-name="Layer 1" xmlns="http://www.w3.org/2000/svg" viewBox="0 0 534 534">
  <defs>
    <style>
      .cls-1 {
        fill: #fdfdfe;
      }

      .cls-2 {
        fill: #fdce0d;
      }

      .cls-3 {
        fill: #fafbfb;
      }
    </style>
  </defs>
  <path class="cls-1" d="M267.44,99.86c4.6,1.48,7.66,3.8,11.37,6.83.73.58,1.47,1.16,2.22,1.76,1.55,1.22,3.09,2.46,4.63,3.69,3.75,3,7.54,5.93,11.33,8.87,1.5,1.17,3.01,2.34,4.51,3.52,6.48,5.04,13.02,10.02,19.55,15,4.99,3.81,9.96,7.65,14.94,11.48,1.62,1.25,3.24,2.5,4.86,3.74,1.09.84,2.18,1.68,3.27,2.52,2.64,2.03,5.29,4.07,7.94,6.1,6.24,4.79,12.47,9.61,18.68,14.45,8.07,6.28,16.18,12.5,24.31,18.71,3.94,3.01,7.86,6.03,11.78,9.05,2.26,1.74,4.53,3.47,6.81,5.2q.9.69,1.82,1.38c1.16.88,2.31,1.75,3.47,2.62q3.94,3,5.05,5.22c.1,2.71.15,5.39.15,8.1,0,.85,0,1.7.01,2.57.01,2.86.01,5.71.02,8.57,0,2.04.01,4.08.02,6.12.02,5.56.03,11.12.04,16.67,0,3.47.01,6.94.02,10.41.02,10.85.03,21.7.04,32.55,0,12.54.04,25.07.08,37.61.03,9.68.04,19.36.05,29.04,0,5.79.01,11.57.04,17.36.02,5.44.03,10.89.02,16.33,0,2,0,4,.02,6,.02,2.73.01,5.45,0,8.18q.02,1.19.03,2.4c-.04,3.74-.39,5.87-2.43,9.05-2.92,2.84-4.44,3.16-8.4,3.15-.9,0-1.8,0-2.73,0q-1.49,0-3.02-.01c-1.06,0-2.12,0-3.21,0-3.45,0-6.89,0-10.34-.02-2.12,0-4.25,0-6.37,0-7.89,0-15.77-.02-23.66-.03q-26.42-.03-53.38-.06v-146c3.89,1.94,7.02,4.24,10.38,6.94,1.26,1,2.52,2,3.78,3,.64.51,1.28,1.02,1.94,1.55,1.78,1.42,3.58,2.82,5.37,4.23,6.17,4.82,12.28,9.7,18.34,14.66,5.72,4.67,11.51,9.25,17.38,13.75.71.54,1.41,1.09,2.14,1.65,6.43,4.91,10.68,7.88,19.01,7.64,4.28-.67,5.84-2.16,8.66-5.42,2.25-4.32,2.35-8.54,2.43-13.3.02-.82.04-1.65.06-2.5.2-8.59.29-17.18.37-25.77.04-4.07.12-8.14.23-12.21.13-4.93.2-9.85.22-14.78.02-1.87.06-3.74.12-5.61q.63-9.75-2.71-18.58c-3.48-3.48-7.48-5.83-11.73-8.25-1.45-1.11-2.88-2.25-4.28-3.43-.61-.5-1.22-1-1.84-1.51-.6-.49-1.2-.99-1.82-1.5-4.98-4.07-9.99-8.1-15.06-12.06-5.74-4.48-11.4-9.06-17.04-13.66-4.85-3.95-9.74-7.82-14.67-11.67-4.5-3.52-8.93-7.11-13.35-10.73-4.76-3.89-9.55-7.71-14.44-11.44-4.89-3.73-9.68-7.55-14.44-11.44-1.35-1.1-2.7-2.19-4.04-3.29-2.68-2.18-5.35-4.38-8.01-6.59-1.25-1.02-2.51-2.04-3.76-3.07q-.86-.72-1.73-1.46-1.78-1.48-4.52-3.16c-3.27.35-5.15,1.68-7.62,3.77-.68.57-1.36,1.14-2.07,1.73q-1.08.93-2.19,1.87c-1.54,1.29-3.07,2.58-4.61,3.86-.76.64-1.53,1.28-2.31,1.94-3.04,2.52-6.14,4.96-9.26,7.38-5.03,3.92-10,7.91-14.94,11.94-7.82,6.38-15.75,12.62-23.71,18.83-7.51,5.86-14.95,11.81-22.33,17.83-4.29,3.49-8.6,6.93-12.96,10.34-5.77,4.51-11.47,9.1-17.14,13.73q-.93.76-1.87,1.53c-.59.5-1.18,1.01-1.79,1.53q-2.2,1.71-4.74,3.1c-3.59,2.19-6.75,4.28-8.03,8.47-.91,5.73-.66,11.52-.52,17.3.01,1.88.02,3.76.02,5.64.02,3.93.07,7.86.14,11.79.1,5.03.14,10.05.15,15.08.02,4.81.07,9.62.12,14.43q.01,1.37.02,2.77c.03,2.59.07,5.18.12,7.77,0,.76,0,1.52.01,2.31.15,5.92,1.7,9.87,5.42,14.43,5,2.65,9.55,2.7,15.06,1.62,3.52-1.75,6.39-4.03,9.37-6.6,1.86-1.6,3.75-3.15,5.65-4.7,2.94-2.41,5.87-4.83,8.79-7.25,4.54-3.75,9.19-7.32,13.88-10.88,3.9-2.99,7.7-6.09,11.51-9.19.68-.55,1.35-1.1,2.05-1.67,2.98-2.43,5.96-4.87,8.93-7.31.89-.73,1.79-1.46,2.71-2.21.76-.63,1.52-1.25,2.3-1.89q1.82-1.29,3.82-1.29v146c-17.55.08-35.1.17-53.19.25q-8.31.05-16.79.11-6.77.02-9.94.02c-2.21,0-4.42.02-6.64.04-3.35.03-6.7.03-10.06.03-.98.01-1.97.03-2.98.04-4.29-.03-6.75-.1-10.49-2.34-3.54-4-3.07-8.23-3.07-13.29,0-.84-.01-1.68-.02-2.54-.02-2.82-.02-5.64-.03-8.46,0-2.02-.02-4.04-.03-6.06-.03-6.64-.05-13.28-.07-19.91,0-1.13,0-2.26,0-3.42-.03-10.64-.06-21.29-.07-31.93-.02-13.62-.06-27.24-.13-40.86-.05-9.57-.07-19.15-.08-28.72,0-5.72-.02-11.44-.06-17.16-.04-5.38-.05-10.76-.03-16.14,0-1.97-.01-3.95-.03-5.92-.03-2.7-.02-5.39,0-8.09q-.03-1.17-.05-2.36c.09-5.32,1.58-8,5.24-11.84,2.16-2.02,4.38-3.79,6.79-5.5,5.22-3.8,10.35-7.71,15.44-11.69,8.09-6.31,16.22-12.55,24.38-18.77,4.99-3.81,9.96-7.65,14.94-11.48,2.17-1.67,4.33-3.33,6.5-5,1.08-.83,2.17-1.67,3.25-2.5q6.5-5,8.12-6.25c1.09-.84,2.17-1.67,3.26-2.51,2.64-2.04,5.29-4.07,7.94-6.1,5.48-4.21,10.94-8.43,16.39-12.67,8.79-6.85,17.6-13.67,26.48-20.4,2.09-1.6,4.15-3.23,6.21-4.87,1.32-1.03,2.65-2.06,3.97-3.08q.89-.72,1.79-1.46c2.94-2.25,4.8-3.15,8.52-3.31Z"/>
  <path class="cls-3" d="M305.12,59.26c2.78,2.11,5.52,4.27,8.25,6.45,2.58,2.05,5.2,4.04,7.82,6.05,5.21,4,10.39,8.03,15.56,12.06,8.07,6.28,16.18,12.5,24.31,18.71,4.99,3.81,9.96,7.65,14.94,11.48,1.62,1.25,3.24,2.5,4.86,3.74,1.09.84,2.18,1.68,3.27,2.52,2.64,2.03,5.29,4.07,7.94,6.1,6.24,4.79,12.47,9.61,18.68,14.45,6,4.67,12.02,9.32,18.06,13.94.7.54,1.41,1.07,2.13,1.63,2.63,2.01,5.25,4.01,7.88,6.01,2.74,2.09,5.46,4.18,8.18,6.29,1.96,1.52,3.94,3.03,5.92,4.52,13.34,10.31,21.93,24.16,25.07,40.8.26,3.07.27,6.12.26,9.2,0,.89,0,1.79.01,2.71.01,2.97,0,5.95,0,8.92,0,2.14,0,4.28.02,6.42.01,5.8.01,11.6.01,17.4,0,4.85,0,9.7,0,14.54.01,11.44.01,22.89,0,34.33,0,11.79,0,23.58.03,35.36.02,10.13.02,20.27.02,30.4,0,6.05,0,12.09.01,18.14.01,5.69.01,11.38,0,17.07,0,2.08,0,4.16,0,6.24.05,13.71-.6,25.97-7.01,38.39-.34.68-.69,1.35-1.04,2.05-3.25,6.12-7.31,11.04-12.33,15.82q-.95.96-1.93,1.95c-16.94,16.17-39.29,15.65-61.1,15.56-3.81-.01-7.61,0-11.42,0-7.44.01-14.87,0-22.31,0-8.67-.02-17.34-.01-26.02,0-15.48,0-30.96,0-46.43-.03-15-.02-29.99-.03-44.99-.02-16.36.01-32.72.01-49.08,0-1.75,0-3.49,0-5.24,0-.86,0-1.72,0-2.6,0-6.04,0-12.07,0-18.11,0-7.36,0-14.72,0-22.08-.02-3.75,0-7.5-.02-11.25,0-4.07,0-8.15,0-12.22-.02q-1.76,0-3.55.02c-10.5-.08-20.29-2.12-29.67-6.91q-1.01-.51-2.03-1.03c-14.62-7.82-24.78-20.79-29.97-36.47q-.37-1.1-.75-2.23c-2.99-10.12-2.68-20.17-2.65-30.62,0-2.09-.01-4.19-.02-6.28-.02-5.66-.02-11.32-.01-16.98,0-4.74,0-9.48,0-14.22-.01-11.19-.01-22.38,0-33.56.01-11.51,0-23.02-.03-34.53-.02-9.91-.03-19.82-.02-29.73,0-5.91,0-11.81-.02-17.72-.02-5.56-.01-11.12,0-16.68,0-2.03,0-4.06,0-6.09-.1-21.08,3.13-39.35,18.28-55.19,6.7-6.58,14.07-12.22,21.53-17.9,2.74-2.09,5.47-4.19,8.21-6.3,1.08-.83,2.17-1.67,3.25-2.5.54-.41,1.07-.82,1.62-1.25q43.88-33.75,45.5-35c1.09-.84,2.17-1.67,3.26-2.51,2.64-2.04,5.29-4.07,7.94-6.1,6.24-4.79,12.47-9.61,18.68-14.45,7.4-5.76,14.83-11.47,22.29-17.16,2.48-1.89,4.96-3.8,7.42-5.71,28.54-22.18,59.56-36.03,92.66-12.06ZM231.32,89.13c-3.66,2.94-7.4,5.78-11.13,8.62-1.41,1.07-2.82,2.15-4.22,3.22q-1,.77-2.03,1.55c-3.96,3.02-7.9,6.06-11.85,9.1-2.05,1.58-4.1,3.15-6.15,4.73-6.25,4.8-12.48,9.62-18.69,14.46-8.07,6.28-16.18,12.5-24.31,18.71-4.99,3.81-9.96,7.65-14.94,11.48-1.62,1.25-3.24,2.5-4.86,3.74-1.09.84-2.18,1.68-3.27,2.52-2.64,2.03-5.29,4.07-7.94,6.1-2.11,1.62-4.22,3.24-6.32,4.87-2.7,2.08-5.42,4.14-8.14,6.2q-17.76,13.05-26.46,32.57c-.1,2.9-.15,5.79-.15,8.69,0,.87,0,1.75-.01,2.65-.01,2.93-.01,5.86-.02,8.79,0,2.1-.01,4.2-.02,6.3-.02,6.9-.03,13.8-.04,20.7,0,2.38,0,4.75-.01,7.13-.02,11.17-.03,22.34-.04,33.51,0,12.88-.04,25.77-.08,38.65-.03,9.97-.04,19.93-.05,29.9,0,5.95-.01,11.9-.04,17.85-.02,5.6-.03,11.2-.02,16.8,0,2.05,0,4.1-.02,6.15-.1,15.21.98,27.23,12.15,38.56,7,6.39,14.31,9.43,23.8,9.45q1.64,0,3.3.01t3.61,0,3.85.01c3.53,0,7.05.01,10.58.02,3.8,0,7.61.01,11.41.02,9.19.02,18.37.03,27.56.04,4.33,0,8.66,0,12.98.01,14.39.02,28.78.03,43.17.04,3.73,0,7.46,0,11.2,0,.93,0,1.86,0,2.81,0,15.03,0,30.06.03,45.08.07,15.43.03,30.87.05,46.3.05,8.66,0,17.33.01,25.99.04,7.38.02,14.76.03,22.13.02,3.76,0,7.52,0,11.29.02,4.08.02,8.17.01,12.25,0,1.18.01,2.36.02,3.58.03,11.57-.09,20.45-3.81,29-11.65,7.43-7.62,9.59-16.23,9.58-26.53,0-.88,0-1.77,0-2.68,0-2.97.01-5.93.01-8.9,0-2.12,0-4.25.02-6.37.01-5.77.02-11.55.02-17.32,0-3.61,0-7.22.01-10.82.01-11.29.02-22.58.03-33.87,0-13.03.02-26.06.05-39.09.02-10.07.03-20.15.03-30.22,0-6.02,0-12.03.02-18.05.02-5.66.02-11.32,0-16.98,0-2.07,0-4.15.01-6.22.01-2.84,0-5.68,0-8.52,0-.82.02-1.63.02-2.47-.09-10.04-3.71-18.37-10.39-25.82-4.71-4.36-9.87-8.17-15-12-1.3-.98-2.6-1.96-3.9-2.94-1.97-1.48-3.94-2.96-5.91-4.43-7.39-5.5-14.64-11.18-21.9-16.85-11.73-9.17-23.51-18.27-35.35-27.31-3.96-3.02-7.9-6.06-11.85-9.1-2.05-1.58-4.1-3.15-6.15-4.73-6.25-4.8-12.48-9.62-18.69-14.46-8.1-6.3-16.21-12.58-24.39-18.78-1.18-.89-2.35-1.79-3.52-2.69-23.7-18.18-42.26-12.24-64.02,5.41Z"/>
  <path class="cls-2" d="M266,170c3.91,1.44,7.03,4.24,10.25,6.81.61.48,1.22.96,1.84,1.46,5.35,4.25,10.65,8.57,15.94,12.89,4.29,3.49,8.61,6.94,12.96,10.34,5.74,4.48,11.4,9.06,17.04,13.66,4.85,3.95,9.75,7.83,14.68,11.68,3.06,2.4,6.1,4.82,9.11,7.28.62.5,1.24,1.01,1.88,1.53,1.33,1.09,2.66,2.2,3.97,3.31,3.46,2.89,6.85,5.43,10.8,7.61,5.69,3.31,11.31,6.66,13.41,13.21,1.23,7.83.66,15.67.17,23.54-.09,2.4-.16,4.8-.23,7.19-.19,5.84-.47,11.66-.83,17.49-3.32-2.18-6.57-4.35-9.63-6.88-.64-.52-1.27-1.04-1.93-1.58-.66-.55-1.33-1.1-2.01-1.66-4.92-4.04-9.87-8.02-14.94-11.88-4.83-3.68-9.55-7.46-14.25-11.31-5.48-4.49-11.04-8.85-16.69-13.12-8.13-6.15-16-12.6-23.82-19.14-1.87-1.52-3.81-2.97-5.74-4.42-.33,64.68-.66,129.36-1,196h-41v-196q-10.48,8.04-20.75,16.31c-5.48,4.49-11.04,8.85-16.69,13.12-6.6,5-13.02,10.17-19.38,15.46-5.59,4.64-11.27,9.15-17,13.61-3.82,2.97-7.56,6.04-11.29,9.12q-1.89,1.36-3.89,1.36c-.33-6.92-.56-13.83-.71-20.76-.07-2.35-.15-4.7-.27-7.05q-.97-20.59,3.69-26.06c3.13-2.92,6.58-5.01,10.29-7.13,1.28-.98,2.54-1.98,3.77-3.02,1-.78,2.01-1.55,3.04-2.35,5.06-3.93,10.04-7.94,15-12,5.46-4.47,11-8.81,16.62-13.06,6.6-5,13.03-10.18,19.4-15.47,4.9-4.07,9.87-8.04,14.9-11.96,5.44-4.24,10.78-8.6,16.11-12.98q.96-.79,1.95-1.6c.57-.47,1.14-.94,1.73-1.42q1.47-1.13,3.47-2.13Z"/>
</svg>