<?xml version="1.0" encoding="UTF-8"?>
<svg id="Layer_1" data-name="Layer 1" xmlns="http://www.w3.org/2000/svg" xmlns:xlink="http://www.w3.org/1999/xlink" viewBox="0 0 32 32">
  <defs>
    <style>
      .cls-1 {
        fill: none;
      }

      .cls-2 {
        fill: #fff;
      }

      .cls-3 {
        clip-path: url(#clippath);
      }
    </style>
    <clipPath id="clippath">
      <rect class="cls-1" x="2.25" y="2.23" width="27.51" height="27.54"/>
    </clipPath>
  </defs>
  <g class="cls-3">
    <g>
      <path class="cls-2" d="M24.43,6.43c1.5-.43,3.66-1.22,6.36-2.54l-1.3-2.36c-4.68,2.29-7.17,2.67-7.29,2.68h-.06s-.08.02-.08.02c-3.9.86-8.03.87-11.94.03-.1-.02-2.72-.63-7.78-2.71l-1.13,2.43c2.81,1.15,4.89,1.88,6.27,2.3v19.43c-1.38.43-3.47,1.15-6.27,2.31l1.13,2.43c5.07-2.09,7.71-2.7,7.78-2.71,3.91-.84,8.04-.83,11.94.03l.07.02h.08c.12.03,2.6.39,7.29,2.69l1.3-2.36c-2.69-1.32-4.86-2.11-6.36-2.54M21.61,24.97c-3.73-.68-7.6-.67-11.32.03V7.01c1.89.35,3.81.53,5.73.53s3.75-.17,5.59-.5v17.93h0Z"/>
      <path class="cls-2" d="M29.57,30.72l-.17-.08c-4.68-2.29-7.13-2.65-7.23-2.66l-.17-.03c-3.87-.85-7.97-.86-11.85-.02-.1.03-2.71.63-7.74,2.7l-.18.07-1.29-2.78.18-.07c2.8-1.15,4.87-1.86,6.15-2.27V6.42c-1.28-.4-3.35-1.12-6.15-2.27l-.18-.08,1.29-2.78.18.08c5.04,2.08,7.64,2.68,7.74,2.7,3.87.83,7.97.83,11.85-.03l.17-.03c.1-.01,2.56-.38,7.22-2.66l.17-.08,1.48,2.69-.18.08c-2.81,1.38-4.93,2.12-6.25,2.51v18.88c1.32.39,3.44,1.13,6.25,2.51l.18.08M16.03,26.93c2.04,0,4.08.22,6.07.65l.12.02c.11.02,2.57.37,7.18,2.61l1.12-2.03c-2.8-1.36-4.88-2.08-6.15-2.44l-.14-.04V6.29l.14-.04c1.26-.36,3.35-1.08,6.15-2.44l-1.12-2.03c-4.61,2.24-7.07,2.6-7.18,2.61l-.13.02c-3.93.86-8.09.87-12.03.03-.11-.03-2.68-.62-7.63-2.65l-.97,2.09c2.79,1.14,4.84,1.84,6.07,2.23l.13.04v19.7l-.13.04c-1.23.39-3.28,1.08-6.07,2.23l.97,2.09c4.94-2.02,7.52-2.62,7.63-2.65,1.95-.42,3.96-.63,5.96-.63M10.1,25.22V6.78l.24.05c3.68.69,7.56.7,11.24.03l.23-.04v18.38l-.23-.04c-3.68-.67-7.57-.66-11.24.03,0,0-.24.05-.24.05ZM10.49,7.24v17.53c3.58-.64,7.34-.65,10.92-.03V7.26c-3.58.62-7.35.61-10.92-.03"/>
    </g>
  </g>
  <path class="cls-2" d="M30,2v28H2V2h28,0ZM2.49,2.46v27.07h27.02V2.46H2.49Z"/>
</svg>